<?xml version="1.0" encoding="UTF-8" standalone="no"?>
<svg
   xmlns:dc="http://purl.org/dc/elements/1.1/"
   xmlns:cc="http://creativecommons.org/ns#"
   xmlns:rdf="http://www.w3.org/1999/02/22-rdf-syntax-ns#"
   xmlns:svg="http://www.w3.org/2000/svg"
   xmlns="http://www.w3.org/2000/svg"
   xmlns:sodipodi="http://sodipodi.sourceforge.net/DTD/sodipodi-0.dtd"
   xmlns:inkscape="http://www.inkscape.org/namespaces/inkscape"
   sodipodi:docname="drawing.svg"
   inkscape:version="1.0 (4035a4f, 2020-05-01)"
   id="svg8"
   version="1.1"
   viewBox="0 0 84.640343 71.460632"
   display="block"
   height="100%"
   width="100%"
   preserveAspectRatio="xMaxYMid meet">

  <g
     transform="translate(-48.010462,-118.48396)"
     id="layer1"
     inkscape:groupmode="layer"
     inkscape:label="Layer 1">
    <path
       sodipodi:nodetypes="cccccccccccccccccccccccccccccc"
       id="Selection #1"
       d="m 54.032444,144.18033 c 3.688713,15.18877 7.419448,30.95401 10.711186,44.53469 0.05927,0.25823 0.1143,0.87206 0.283633,1.04986 0.158327,0.16595 0.47752,0.13462 0.690034,0.13547 h 21.420678 c 1.378641,-17.46608 3.698311,-35.45289 4.910669,-51.22336 4.009247,17.11388 8.140406,35.02726 11.750896,50.37669 l 0.24892,0.76285 0.61552,0.0838 h 20.57401 c 2.45463,-24.29021 5.16806,-49.53225 7.36601,-71.37404 h -15.66334 c -1.32034,17.3309 -2.38569,35.28031 -3.21751,50.80003 l -0.0847,2.11667 -0.0838,1.27 v 1.69333 l -0.0855,0.84667 -0.63077,-2.62467 -0.62484,-2.70933 c -3.65752,-17.5815 -7.7224,-35.69251 -11.10573,-51.3927 H 80.533798 c -1.216498,20.80297 -3.123529,40.31334 -4.826002,59.18203 l -0.4064,-1.94733 c -3.867144,-17.8523 -6.223992,-35.44955 -10.072799,-51.22336 l -0.605367,-2.794 -0.508847,-2.20134 -0.321733,-0.93218 -0.615505,-0.0838 H 48.06414 c 2.016249,8.41287 4.113654,17.47316 5.968304,25.65402 z" />
  </g>
</svg>
