<?xml version="1.0" encoding="UTF-8" standalone="no"?>
<svg
   xmlns:dc="http://purl.org/dc/elements/1.1/"
   xmlns:cc="http://creativecommons.org/ns#"
   xmlns:rdf="http://www.w3.org/1999/02/22-rdf-syntax-ns#"
   xmlns:svg="http://www.w3.org/2000/svg"
   xmlns="http://www.w3.org/2000/svg"
   xmlns:sodipodi="http://sodipodi.sourceforge.net/DTD/sodipodi-0.dtd"
   xmlns:inkscape="http://www.inkscape.org/namespaces/inkscape"
   id="svg8"
   version="1.1"
   viewBox="0 0 84.640343 71.460632"
   display="block"
   height="100%"
   preserveAspectRatio="xMaxYMid meet">

  <g
     inkscape:label="Layer 2"
     id="layer2"
     inkscape:groupmode="layer">
    <path
       d="m 0.05273437,0.04296875 c 3.37001703,0 6.74102923,0.0042458 10.11132763,0 z m 0,0 V 71.484375 H 84.59375 V 0.04296875 C 82.3958,21.884759 79.681193,47.125806 77.226562,71.416016 l -21.189453,0.07299 -0.248047,-0.918689 C 52.178573,55.220883 48.04831,37.307239 44.039062,20.193359 42.826704,35.963829 40.505594,53.949936 39.126953,71.416016 L 17.095781,71.51586 C 16.926448,71.33806 16.791692,70.488699 16.732422,70.230469 13.440684,56.649789 9.7101974,40.886036 6.0214844,25.697266 4.1668344,17.516406 2.0689834,8.4558387 0.05273437,0.04296875 Z m 15.73437463,0 0.316407,1.01562505 0.509765,2.2011718 0.605469,2.7929688 C 21.067557,21.826544 23.423872,39.425044 27.291016,57.277344 l 0.40625,1.947265 c 1.702473,-18.86869 3.609673,-38.37867 4.826172,-59.18164025 z m 37.310547,0 C 56.480986,15.743159 60.545605,33.854047 64.203125,51.435547 l 0.625,2.708984 0.630859,2.625 0.08594,-0.847656 v -1.693359 l 0.08398,-1.269532 0.08398,-2.117187 c 0.83182,-15.51972 1.896456,-33.467928 3.216797,-50.79882825 z"/>
  </g>
</svg>
